<svg xmlns="http://www.w3.org/2000/svg" viewBox="0 0 100 100">
  <defs>
    <linearGradient id="shieldGrad" x1="0%" y1="0%" x2="100%" y2="100%">
      <stop offset="0%" style="stop-color:#00f2ff;stop-opacity:1" />
      <stop offset="100%" style="stop-color:#0080ff;stop-opacity:1" />
    </linearGradient>
    <linearGradient id="lockGrad" x1="0%" y1="0%" x2="100%" y2="100%">
      <stop offset="0%" style="stop-color:#ffffff;stop-opacity:1" />
      <stop offset="100%" style="stop-color:#e0f7ff;stop-opacity:1" />
    </linearGradient>
    <filter id="glow" x="-20%" y="-20%" width="140%" height="140%">
      <feGaussianBlur stdDeviation="2" result="blur"/>
      <feMerge>
        <feMergeNode in="blur"/>
        <feMergeNode in="SourceGraphic"/>
      </feMerge>
    </filter>
  </defs>
  <path d="M50 5 L85 20 Q90 55 50 92 Q10 55 15 20 Z" fill="url(#shieldGrad)" filter="url(#glow)"/>
  <path d="M50 12 L78 24 Q82 52 50 82 Q18 52 22 24 Z" fill="none" stroke="rgba(255,255,255,0.3)" stroke-width="1.5"/>
  <rect x="35" y="42" width="30" height="24" rx="3" ry="3" fill="url(#lockGrad)"/>
  <path d="M40 42 Q40 28 50 28 Q60 28 60 42" fill="none" stroke="url(#lockGrad)" stroke-width="5" stroke-linecap="round"/>
  <circle cx="50" cy="50" r="4" fill="#00a8e8"/>
  <rect x="48" y="50" width="4" height="8" rx="1" fill="#00a8e8"/>
</svg>